<?xml version="1.0" encoding="UTF-8"?>
<svg xmlns="http://www.w3.org/2000/svg" xmlns:xlink="http://www.w3.org/1999/xlink" viewBox="0 0 64 64" version="1.1" width="64px" height="64px" fill="white">
<g id="surface1">
<path style=" " d="M 13 6 C 9.140625 6 6 9.140625 6 13 L 6 51 C 6 54.859375 9.140625 58 13 58 L 51 58 C 54.859375 58 58 54.859375 58 51 L 58 13 C 58 9.140625 54.859375 6 51 6 Z M 13 8 L 51 8 C 53.757813 8 56 10.242188 56 13 L 56 51 C 56 53.757813 53.757813 56 51 56 L 13 56 C 10.242188 56 8 53.757813 8 51 L 8 15 C 8 15.550781 8.445313 16 9 16 C 9.554688 16 10 15.550781 10 15 L 10 13 C 10 12.449219 9.554688 12 9 12 C 8.445313 12 8 12.449219 8 13 C 8 10.242188 10.242188 8 13 8 Z M 14 12 C 13.445313 12 13 12.449219 13 13 L 13 15 C 13 15.550781 13.445313 16 14 16 C 14.554688 16 15 15.550781 15 15 L 15 13 C 15 12.449219 14.554688 12 14 12 Z M 19 12 C 18.445313 12 18 12.449219 18 13 L 18 15 C 18 15.550781 18.445313 16 19 16 C 19.554688 16 20 15.550781 20 15 L 20 13 C 20 12.449219 19.554688 12 19 12 Z M 24 12 C 23.445313 12 23 12.449219 23 13 L 23 15 C 23 15.550781 23.445313 16 24 16 C 24.554688 16 25 15.550781 25 15 L 25 13 C 25 12.449219 24.554688 12 24 12 Z M 29 12 C 28.445313 12 28 12.449219 28 13 L 28 15 C 28 15.550781 28.445313 16 29 16 C 29.554688 16 30 15.550781 30 15 L 30 13 C 30 12.449219 29.554688 12 29 12 Z M 34 12 C 33.445313 12 33 12.449219 33 13 L 33 15 C 33 15.550781 33.445313 16 34 16 C 34.554688 16 35 15.550781 35 15 L 35 13 C 35 12.449219 34.554688 12 34 12 Z M 39 12 C 38.445313 12 38 12.449219 38 13 L 38 15 C 38 15.550781 38.445313 16 39 16 C 39.554688 16 40 15.550781 40 15 L 40 13 C 40 12.449219 39.554688 12 39 12 Z M 44 12 C 43.445313 12 43 12.449219 43 13 L 43 15 C 43 15.550781 43.445313 16 44 16 C 44.554688 16 45 15.550781 45 15 L 45 13 C 45 12.449219 44.554688 12 44 12 Z M 49 12 C 48.445313 12 48 12.449219 48 13 L 48 15 C 48 15.550781 48.445313 16 49 16 C 49.554688 16 50 15.550781 50 15 L 50 13 C 50 12.449219 49.554688 12 49 12 Z M 54 12 C 53.445313 12 53 12.449219 53 13 L 53 15 C 53 15.550781 53.445313 16 54 16 C 54.554688 16 55 15.550781 55 15 L 55 13 C 55 12.449219 54.554688 12 54 12 Z M 29.144531 22.734375 C 27.613281 22.761719 26.355469 22.890625 25.449219 23.335938 C 24.789063 23.660156 23.792969 24.507813 23.9375 25.40625 C 24.015625 25.886719 24.398438 26.253906 24.886719 26.320313 C 25.25 26.367188 25.746094 26.523438 25.945313 26.792969 C 26.207031 27.148438 26.335938 28.210938 26.332031 28.921875 C 26.464844 30.835938 26.328125 32.90625 26.046875 33.574219 C 25.722656 33.359375 24.917969 32.558594 23.1875 29.566406 C 22.046875 27.597656 21.164063 25.382813 21.15625 25.355469 C 21.105469 25.242188 20.851563 24.644531 20.339844 24.269531 C 19.796875 23.875 19.136719 23.75 19.011719 23.730469 C 18.953125 23.71875 18.925781 23.707031 18.839844 23.714844 L 13.246094 23.75 C 12.941406 23.761719 11.917969 23.835938 11.363281 24.492188 C 10.761719 25.207031 11.0625 26.195313 11.1875 26.523438 C 11.367188 26.949219 15.679688 36.957031 20.6875 42.171875 C 25.335938 47.015625 30.582031 46.90625 31.105469 46.886719 L 33.410156 46.886719 C 33.449219 46.886719 33.484375 46.886719 33.519531 46.878906 C 33.703125 46.859375 34.625 46.730469 35.207031 46.101563 C 35.785156 45.480469 35.800781 44.5625 35.796875 44.386719 C 35.78125 43.179688 36.136719 41.878906 36.464844 41.765625 C 36.851563 41.804688 37.835938 42.933594 38.425781 43.609375 C 39.191406 44.484375 39.980469 45.390625 40.855469 45.992188 C 42.074219 46.832031 43.132813 46.980469 43.722656 46.980469 C 43.882813 46.980469 44.007813 46.96875 44.09375 46.957031 L 49.28125 46.886719 C 49.589844 46.867188 51.15625 46.710938 51.777344 45.53125 C 52.035156 45.035156 52.199219 44.203125 51.5 43.035156 C 50.648438 41.480469 48.832031 39.636719 47.460938 38.359375 L 47.367188 38.277344 C 46.421875 37.398438 45.609375 36.644531 45.601563 36.324219 C 45.59375 35.929688 46.367188 34.929688 47.347656 33.660156 C 47.738281 33.160156 48.183594 32.582031 48.6875 31.910156 C 52.070313 27.402344 52.199219 25.882813 51.878906 24.996094 C 51.375 23.582031 49.367188 23.691406 48.832031 23.75 L 43.074219 23.785156 C 42.839844 23.765625 42.265625 23.757813 41.757813 24.0625 C 41.21875 24.382813 40.921875 24.960938 40.816406 25.199219 C 40.808594 25.222656 39.902344 27.613281 38.722656 29.613281 C 37.125 32.328125 36.265625 33.199219 35.902344 33.476563 C 35.699219 33.003906 35.726563 31.921875 35.746094 31.292969 C 35.753906 31.039063 35.761719 30.792969 35.761719 30.5625 C 35.761719 29.585938 35.796875 28.746094 35.824219 28.019531 C 35.925781 25.542969 36.003906 23.585938 33.722656 23.035156 C 33 22.859375 32.472656 22.753906 30.765625 22.734375 C 30.195313 22.730469 29.65625 22.726563 29.144531 22.734375 Z M 30.746094 24.734375 C 32.308594 24.753906 32.707031 24.847656 33.253906 24.980469 C 33.816406 25.117188 33.933594 25.238281 33.824219 27.9375 C 33.792969 28.6875 33.761719 29.558594 33.761719 30.5625 C 33.761719 30.777344 33.753906 31.003906 33.746094 31.238281 C 33.707031 32.695313 33.65625 34.511719 34.964844 35.359375 C 35.3125 35.582031 35.738281 35.648438 36.164063 35.546875 C 36.914063 35.367188 38.082031 34.648438 40.449219 30.628906 C 41.714844 28.480469 42.648438 26.003906 42.660156 25.96875 C 42.679688 25.929688 42.757813 25.800781 42.761719 25.789063 C 42.789063 25.777344 42.859375 25.777344 42.890625 25.777344 C 42.941406 25.785156 42.996094 25.789063 43.03125 25.785156 L 48.898438 25.75 C 48.933594 25.75 48.972656 25.746094 49.007813 25.742188 C 49.34375 25.703125 49.761719 25.726563 49.984375 25.78125 C 49.9375 26.164063 49.5625 27.410156 47.085938 30.714844 C 46.589844 31.375 46.148438 31.941406 45.765625 32.4375 C 42.753906 36.332031 42.964844 36.921875 46.007813 39.746094 L 46.097656 39.828125 C 47.886719 41.484375 49.179688 42.964844 49.738281 43.996094 C 49.746094 44.007813 49.789063 44.082031 49.796875 44.09375 C 50.011719 44.445313 50 44.601563 50.003906 44.601563 C 49.933594 44.703125 49.519531 44.863281 49.203125 44.886719 L 44 44.957031 C 43.953125 44.957031 43.886719 44.964844 43.84375 44.972656 C 43.8125 44.976563 43.050781 45.074219 41.984375 44.34375 C 41.320313 43.886719 40.617188 43.078125 39.933594 42.296875 C 38.800781 41 37.722656 39.765625 36.484375 39.765625 C 36.292969 39.765625 36.097656 39.792969 35.902344 39.855469 C 33.84375 40.507813 33.789063 43.765625 33.796875 44.40625 C 33.796875 44.527344 33.761719 44.703125 33.746094 44.738281 C 33.6875 44.789063 33.492188 44.859375 33.34375 44.886719 L 31.078125 44.886719 C 31.0625 44.886719 31.042969 44.886719 31.023438 44.890625 C 30.835938 44.902344 26.261719 45.089844 22.128906 40.785156 C 17.402344 35.867188 13.121094 25.960938 13.042969 25.78125 C 13.125 25.761719 13.210938 25.753906 13.277344 25.75 L 18.738281 25.714844 C 18.871094 25.746094 19.050781 25.808594 19.152344 25.882813 C 19.191406 25.914063 19.269531 26.03125 19.296875 26.097656 C 19.335938 26.195313 20.238281 28.46875 21.453125 30.570313 C 23.699219 34.453125 25.25 36.371094 27 35.421875 C 28.417969 34.648438 28.503906 31.382813 28.328125 28.863281 C 28.332031 28.503906 28.316406 26.644531 27.554688 25.609375 C 27.355469 25.339844 27.117188 25.121094 26.859375 24.953125 C 27.894531 24.707031 29.566406 24.722656 30.746094 24.734375 Z "/>
</g>
</svg>
