<?xml version="1.0" encoding="UTF-8"?> <!-- Creator: CorelDRAW 2017 -->
<svg xmlns="http://www.w3.org/2000/svg" xmlns:xlink="http://www.w3.org/1999/xlink" xml:space="preserve" width="1925.6mm" height="715.278mm" style="shape-rendering:geometricPrecision; text-rendering:geometricPrecision; image-rendering:optimizeQuality; fill-rule:evenodd; clip-rule:evenodd" viewBox="0 0 1299058.99 482544.73"> <defs> <style type="text/css"> <![CDATA[ .fil0 {fill:white;fill-rule:nonzero} ]]> </style> </defs> <g id="Слой_x0020_1"> <metadata id="CorelCorpID_0Corel-Layer"></metadata> <path class="fil0" d="M253761.71 267423.83c0,0 -15505.67,34112.39 -45230.36,12582.99l-17729.17 -12516.06c-10389.17,-7332.64 -24429.75,-6670.77 -34082.64,1606.35l-5287.51 4528.97 -5287.58 -4528.97c-9652.88,-8277.12 -23693.47,-8938.99 -34082.64,-1606.35l-17729.17 12516.06c-29724.69,21529.4 -45222.87,-12582.99 -45222.87,-12582.99 0,0 -15505.67,37213.51 21700.42,43415.75 15594.85,2595.42 34246.23,-11140.23 52719.11,-15505.6 15944.38,-3770.42 27902.73,6202.24 27902.73,6202.24 0,0 11958.28,-9972.66 27910.08,-6202.24 18465.45,4365.37 37154,18331.61 52711.69,15505.6 34104.97,-6202.24 21707.91,-43415.75 21707.91,-43415.75zm1040453.4 42456.43c-334.68,312.35 -713.96,461.04 -1137.82,461.04l-2907.77 0c-572.62,0 -996.56,-104.09 -1279.16,-319.77 -282.6,-208.19 -594.89,-624.64 -922.15,-1241.92 -758.55,-1465.02 -2074.81,-2907.77 -3941.43,-4328.2 -1874.11,-1420.42 -4343.11,-2126.89 -7421.9,-2126.89 -2840.85,0 -5242.92,639.55 -7206.22,1911.21 -1963.3,1279.16 -2944.94,3101.12 -2944.94,5466.02 0,1613.77 483.37,2922.68 1457.6,3941.5 966.81,1018.82 2431.82,1896.37 4402.54,2625.17 1963.3,736.22 4930.57,1621.19 8909.24,2669.76 5391.61,1420.42 9214.11,3153.2 11467.49,5213.17 2245.9,2059.97 3368.81,4863.65 3368.81,8410.96 0,2840.85 -795.72,5354.44 -2379.74,7525.99 -1584.02,2178.97 -3822.5,3882 -6707.94,5116.5 -2885.51,1227.08 -6224.57,1844.29 -10009.9,1844.29 -3502.72,0 -6700.52,-661.88 -9585.96,-1993.05 -2885.44,-1323.75 -5161.09,-3011.87 -6812.03,-5071.84 -1658.43,-2059.97 -2535.99,-4105.1 -2625.17,-6142.74 0,-423.93 148.69,-788.3 461.04,-1100.65 304.93,-304.93 669.3,-461.11 1093.23,-461.11l2915.19 0c520.54,0 944.48,104.09 1279.09,319.77 327.26,215.68 639.61,632.12 922.21,1241.99 758.55,1702.96 2141.73,3264.72 4149.69,4685.14 2015.38,1420.42 4744.64,2134.31 8202.71,2134.31 3458.13,0 6380.75,-751.13 8767.91,-2238.48 2387.23,-1494.77 3584.56,-3443.16 3584.56,-5860.14 0,-1561.69 -632.12,-2870.6 -1881.53,-3941.5 -1256.76,-1063.41 -2967.27,-1955.81 -5146.18,-2692.09 -2178.97,-736.22 -5369.35,-1643.52 -9586.03,-2736.69 -4588.47,-1182.48 -7905.27,-2892.93 -9935.48,-5146.25 -2037.64,-2245.9 -3056.46,-5027.24 -3056.46,-8344.04 0,-2454.09 639.55,-4729.73 1918.64,-6812.03 1279.16,-2082.3 3190.37,-3763 5748.62,-5042.15 2558.25,-1279.09 5629.62,-1918.64 9229.02,-1918.64 3599.4,0 6745.11,699.05 9444.69,2097.14 2699.52,1398.09 4781.82,3115.96 6246.83,5146.25 1465.02,2037.64 2245.9,3904.26 2342.57,5607.29 44.66,431.36 -96.67,795.72 -423.87,1100.65zm-71668 27188.77c2297.98,2394.58 5503.19,3591.91 9615.71,3591.91 4164.6,0 7243.39,-899.82 9229.02,-2699.52 1993.05,-1799.7 3316.8,-4119.94 3978.67,-6960.79 96.67,-468.53 319.77,-847.8 676.78,-1130.4 349.52,-290.02 743.64,-431.36 1167.51,-431.36l3264.78 0c431.29,0 795.72,156.18 1100.58,461.11 312.35,312.35 461.11,676.72 461.11,1100.65 -96.67,2320.24 -847.8,4722.31 -2268.23,7206.22 -1420.42,2483.84 -3614.24,4580.98 -6566.61,6284 -2959.85,1703.03 -6641.02,2558.25 -11043.62,2558.25 -3971.18,0 -7451.58,-832.89 -10433.76,-2483.84 -2982.12,-1658.43 -5287.51,-3941.5 -6923.55,-6849.27 -1628.68,-2915.19 -2521.08,-6217.15 -2662.41,-9905.73 -44.59,-1420.42 -66.92,-3525.05 -66.92,-6321.24 0,-2788.77 22.33,-4900.82 66.92,-6313.82 141.33,-3696.07 1033.73,-6997.96 2662.41,-9905.73 1636.04,-2915.19 3941.43,-5198.26 6923.55,-6849.27 2982.18,-1658.37 6462.58,-2491.26 10433.76,-2491.26 4402.61,0 8083.77,855.22 11043.62,2558.18 2952.36,1703.03 5146.18,3800.23 6566.61,6284.07 1420.42,2483.9 2171.55,4885.98 2268.23,7206.22 0,423.93 -148.75,795.72 -461.11,1100.65 -304.86,304.93 -669.3,461.11 -1100.58,461.11l-3264.78 0c-423.87,0 -817.98,-141.33 -1167.51,-423.93 -357.01,-282.6 -580.11,-661.88 -676.78,-1137.82 -661.88,-2840.85 -1985.63,-5161.09 -3978.67,-6960.79 -1985.63,-1792.28 -5064.42,-2692.09 -9229.02,-2692.09 -4112.52,0 -7317.73,1189.84 -9615.71,3584.49 -2297.91,2387.23 -3517.57,5592.45 -3658.83,9615.71 -44.66,1420.42 -66.92,3413.47 -66.92,5964.3 0,2558.25 22.26,4543.87 66.92,5964.3 141.27,4023.27 1360.92,7228.48 3658.83,9615.71zm-26943.34 8700.99c-379.27,-379.27 -565.2,-825.47 -565.2,-1346.08l0 -45862.41c0,-520.61 185.93,-974.23 565.2,-1353.5 379.27,-379.27 825.47,-565.2 1346.08,-565.2l2915.19 0c520.54,0 966.81,185.93 1346.08,565.2 379.27,379.27 565.13,832.89 565.13,1353.5l0 45862.41c0,520.61 -185.86,966.81 -565.13,1346.08 -379.27,379.27 -825.54,565.2 -1346.08,565.2l-2915.19 0c-520.61,0 -966.81,-185.93 -1346.08,-565.2zm-8872 -48561.99c379.27,379.27 565.2,832.89 565.2,1353.5l0 2550.83c0,527.96 -185.93,974.16 -565.2,1353.43 -379.27,379.27 -832.96,565.2 -1353.5,565.2l-13274.61 0 0 41392.95c0,520.61 -185.93,966.81 -565.2,1346.08 -379.27,379.27 -825.47,565.2 -1346.01,565.2l-2915.26 0c-520.54,0 -966.74,-185.93 -1346.01,-565.2 -379.27,-379.27 -572.62,-825.47 -572.62,-1346.08l0 -41392.95 -13274.61 0c-520.61,0 -966.81,-185.93 -1346.08,-565.2 -379.27,-379.27 -565.13,-825.47 -565.13,-1353.43l0 -2550.83c0,-520.61 185.86,-974.23 565.13,-1353.5 379.27,-371.85 825.47,-565.2 1346.08,-565.2l33294.34 0c520.54,0 974.23,193.35 1353.5,565.2zm-67376.97 42739.03l23857.06 0c520.61,0 966.81,193.35 1346.08,565.2 379.27,379.27 572.62,832.89 572.62,1353.43l0 2558.25c0,520.61 -193.35,966.81 -572.62,1346.08 -379.27,379.27 -825.47,565.2 -1346.08,565.2l-28683.54 0c-520.54,0 -966.74,-185.93 -1346.01,-565.2 -379.27,-379.27 -572.62,-825.47 -572.62,-1346.08l0 -45862.41c0,-520.61 193.35,-974.23 572.62,-1353.5 379.27,-379.27 825.47,-565.2 1346.01,-565.2l28118.34 0c520.61,0 966.81,185.93 1346.08,565.2 379.27,379.27 565.2,832.89 565.2,1353.5l0 2550.83c0,520.54 -185.93,974.16 -565.2,1353.43 -379.27,379.27 -825.47,565.2 -1346.08,565.2l-23291.86 0 0 14977.64 21730.17 0c513.12,0 966.81,193.35 1346.08,572.62 379.27,379.27 565.2,825.47 565.2,1346.08l0 2558.18c0,520.61 -185.93,966.81 -565.2,1346.08 -379.27,379.27 -832.96,572.62 -1346.08,572.62l-21730.17 0 0 15542.84zm-26690.49 -41036c758.55,-1509.68 1799.7,-2268.23 3123.45,-2268.23l2699.52 0c520.54,0 966.81,185.93 1346.08,565.2 379.27,379.27 572.62,832.89 572.62,1353.5l0 45862.41c0,520.61 -193.35,966.81 -572.62,1346.08 -379.27,379.27 -825.54,565.2 -1346.08,565.2l-2915.19 0c-520.61,0 -966.81,-185.93 -1346.08,-565.2 -379.27,-379.27 -565.2,-825.47 -565.2,-1346.08l0 -33651.28 -11080.73 21365.8c-379.27,758.55 -788.3,1323.75 -1241.92,1703.03 -446.2,379.27 -1003.98,572.62 -1665.85,572.62l-2699.52 0c-661.88,0 -1219.66,-193.35 -1665.85,-572.62 -453.62,-379.27 -862.64,-944.48 -1241.92,-1703.03l-11073.38 -21365.8 0 33651.28c0,520.61 -193.35,966.81 -572.62,1346.08 -379.27,379.27 -825.47,565.2 -1346.01,565.2l-2907.77 0c-520.61,0 -974.23,-185.93 -1353.5,-565.2 -379.27,-379.27 -565.2,-825.47 -565.2,-1346.08l0 -45862.41c0,-520.61 185.93,-974.23 565.2,-1353.5 379.27,-379.27 832.89,-565.2 1353.5,-565.2l2692.09 0c1323.75,0 2364.9,758.55 3123.45,2268.23l14345.45 27761.39 14338.09 -27761.39zm-47424.17 10969.21c-327.19,312.35 -706.47,461.04 -1137.82,461.04l-2907.77 0c-565.2,0 -996.49,-104.09 -1279.09,-319.77 -282.6,-208.19 -587.53,-624.64 -922.21,-1241.92 -758.55,-1465.02 -2067.39,-2907.77 -3941.43,-4328.2 -1866.62,-1420.42 -4343.11,-2126.89 -7414.47,-2126.89 -2840.78,0 -5242.85,639.55 -7206.22,1911.21 -1963.3,1279.16 -2944.94,3101.12 -2944.94,5466.02 0,1613.77 483.44,2922.68 1450.18,3941.5 974.23,1018.82 2439.24,1896.37 4402.54,2625.17 1963.3,736.22 4938.06,1621.19 8909.24,2669.76 5399.1,1420.42 9214.17,3153.2 11467.49,5213.17 2245.9,2059.97 3368.81,4863.65 3368.81,8410.96 0,2840.85 -788.3,5354.44 -2372.32,7525.99 -1591.44,2178.97 -3822.5,3882 -6715.36,5116.5 -2885.44,1227.08 -6217.15,1844.29 -10009.9,1844.29 -3502.66,0 -6693.03,-661.88 -9578.54,-1993.05 -2892.86,-1323.75 -5161.09,-3011.87 -6819.46,-5071.84 -1658.43,-2059.97 -2528.5,-4105.1 -2625.17,-6142.74 0,-423.93 156.18,-788.3 461.04,-1100.65 304.93,-304.93 676.78,-461.11 1100.65,-461.11l2907.77 0c520.61,0 951.9,104.09 1279.16,319.77 334.61,215.68 639.55,632.12 922.15,1241.99 758.55,1702.96 2141.73,3264.72 4157.11,4685.14 2007.96,1420.42 4744.64,2134.31 8195.29,2134.31 3458.13,0 6380.75,-751.13 8767.98,-2238.48 2394.58,-1494.77 3584.49,-3443.16 3584.49,-5860.14 0,-1561.69 -624.7,-2870.6 -1881.46,-3941.5 -1249.41,-1063.41 -2967.27,-1955.81 -5146.25,-2692.09 -2171.55,-736.22 -5369.35,-1643.52 -9578.54,-2736.69 -4595.89,-1182.48 -7905.27,-2892.93 -9942.97,-5146.25 -2037.64,-2245.9 -3049.04,-5027.24 -3049.04,-8344.04 0,-2454.09 639.55,-4729.73 1911.21,-6812.03 1279.16,-2082.3 3197.86,-3763 5756.04,-5042.15 2550.83,-1279.09 5629.68,-1918.64 9229.02,-1918.64 3591.98,0 6745.18,699.05 9437.27,2097.14 2699.52,1398.09 4781.82,3115.96 6246.83,5146.25 1465.08,2037.64 2253.39,3904.26 2342.57,5607.29 52.08,431.36 -89.19,795.72 -423.87,1100.65zm-71987.77 -4224.1c-2320.24,2231.06 -3547.32,5518.1 -3688.58,9868.56 -52.08,1420.42 -74.41,3413.47 -74.41,5964.3 0,2558.25 22.33,4543.87 74.41,5964.3 141.27,4357.88 1368.34,7644.93 3688.58,9868.56 2320.31,2223.57 5369.35,3339.06 9162.09,3339.06 3785.33,0 6834.36,-1115.49 9154.67,-3339.06 2320.24,-2223.63 3547.32,-5510.68 3696.07,-9868.56 89.19,-2840.85 141.27,-4826.48 141.27,-5964.3 0,-1137.82 -52.08,-3123.45 -141.27,-5964.3 -148.75,-4350.46 -1375.83,-7637.51 -3696.07,-9868.56 -2320.31,-2223.57 -5369.35,-3331.64 -9154.67,-3331.64 -3792.75,0 -6841.79,1108.07 -9162.09,3331.64zm19595.86 -7169.05c2930.1,1703.03 5168.58,4008.42 6707.94,6923.62 1539.43,2907.77 2357.48,6165.07 2454.15,9764.47 89.25,2833.43 141.27,4945.48 141.27,6313.82 0,1375.76 -52.01,3480.39 -141.27,6321.24 -141.33,3599.4 -989.07,6849.21 -2521.08,9756.98 -1539.43,2915.26 -3763,5220.59 -6678.19,6923.62 -2907.77,1703.03 -6373.32,2558.25 -10396.59,2558.25 -4023.27,0 -7496.24,-855.22 -10404.01,-2558.25 -2907.77,-1703.03 -5131.34,-4008.36 -6670.77,-6923.62 -1539.36,-2907.77 -2379.74,-6157.58 -2521.08,-9756.98 -44.59,-1420.42 -74.34,-3525.05 -74.34,-6321.24 0,-2788.77 29.75,-4893.4 74.34,-6313.82 96.74,-3599.4 907.3,-6856.69 2446.73,-9764.47 1539.43,-2915.19 3777.84,-5220.59 6707.94,-6923.62 2937.52,-1702.96 6417.92,-2558.18 10441.18,-2558.18 4023.27,0 7496.24,855.22 10433.76,2558.18zm-66982.79 38581.92c2297.91,2394.58 5503.19,3591.91 9623.13,3591.91 4157.18,0 7235.97,-899.82 9229.02,-2699.52 1985.63,-1799.7 3309.38,-4119.94 3971.25,-6960.79 96.67,-468.53 319.77,-847.8 676.72,-1130.4 356.94,-290.02 743.71,-431.36 1167.57,-431.36l3272.14 0c423.93,0 788.3,156.18 1100.65,461.11 304.93,312.35 461.11,676.72 461.11,1100.65 -96.67,2320.24 -855.22,4722.31 -2275.65,7206.22 -1420.42,2483.84 -3606.82,4580.98 -6566.67,6284 -2959.79,1703.03 -6641.02,2558.25 -11036.14,2558.25 -3978.67,0 -7459.07,-832.89 -10441.18,-2483.84 -2982.12,-1658.43 -5287.51,-3941.5 -6916.2,-6849.27 -1636.1,-2915.19 -2521.01,-6217.15 -2669.76,-9905.73 -44.66,-1420.42 -66.92,-3525.05 -66.92,-6321.24 0,-2788.77 22.26,-4900.82 66.92,-6313.82 148.75,-3696.07 1033.66,-6997.96 2669.76,-9905.73 1628.68,-2915.19 3934.08,-5198.26 6916.2,-6849.27 2982.12,-1658.37 6462.51,-2491.26 10441.18,-2491.26 4395.12,0 8076.35,855.22 11036.14,2558.18 2959.85,1703.03 5146.25,3800.23 6566.67,6284.07 1420.42,2483.9 2178.97,4885.98 2275.65,7206.22 0,423.93 -156.18,795.72 -461.11,1100.65 -312.35,304.93 -676.72,461.11 -1100.65,461.11l-3272.14 0c-423.87,0 -810.63,-141.33 -1167.57,-423.93 -356.94,-282.6 -580.04,-661.88 -676.72,-1137.82 -661.88,-2840.85 -1985.63,-5161.09 -3971.25,-6960.79 -1993.05,-1792.28 -5071.84,-2692.09 -9229.02,-2692.09 -4119.94,0 -7325.22,1189.84 -9623.13,3584.49 -2297.98,2387.23 -3510.15,5592.45 -3651.48,9615.71 -52.01,1420.42 -74.34,3413.47 -74.34,5964.3 0,2558.25 22.33,4543.87 74.34,5964.3 141.33,4023.27 1353.5,7228.48 3651.48,9615.71zm-33896.71 3443.22c379.27,386.7 565.2,832.89 565.2,1353.43l0 2558.25c0,520.61 -185.93,966.81 -565.2,1346.08 -379.27,379.27 -825.47,565.2 -1346.08,565.2l-28899.22 0c-520.54,0 -966.74,-185.93 -1346.01,-565.2 -379.27,-379.27 -565.2,-825.47 -565.2,-1346.08l0 -45862.41c0,-520.61 185.93,-974.23 565.2,-1353.5 379.27,-371.85 825.47,-565.2 1346.01,-565.2l2915.26 0c513.12,0 966.74,193.35 1346.01,565.2 379.27,379.27 565.2,832.89 565.2,1353.5l0 41385.53 24072.74 0c520.61,0 966.81,193.35 1346.08,565.2zm-52607.59 -11779.84l-9794.22 -25344.48 -9868.56 25344.48 19662.78 0zm-22146.62 6388.17l-3696.07 9444.69c-423.93,1182.42 -1346.08,1769.95 -2766.51,1769.95l-2625.17 0c-423.87,0 -795.72,-148.75 -1100.58,-461.11 -312.35,-304.93 -461.11,-669.3 -461.11,-1100.65 0,-237.94 89.25,-565.2 282.6,-989.07l17394.55 -44799c609.79,-1561.69 1680.7,-2342.57 3190.37,-2342.57l4261.27 0c1517.1,0 2580.51,780.88 3197.79,2342.57l17320.21 44799c193.35,423.87 282.53,751.13 282.53,989.07 0,431.36 -148.69,795.72 -461.04,1100.65 -312.35,312.35 -676.72,461.11 -1100.65,461.11l-2625.17 0c-1420.42,0 -2342.57,-587.53 -2766.44,-1769.95l-3696.07 -9444.69 -24630.52 0zm-23857.13 10649.44c-423.87,-379.27 -847.8,-899.88 -1279.09,-1561.76l-23068.83 -34714.69 0 34930.37c0,520.61 -193.35,966.81 -572.62,1346.08 -379.27,379.27 -825.47,565.2 -1346.01,565.2l-2907.77 0c-520.61,0 -974.23,-185.93 -1353.5,-565.2 -379.27,-379.27 -565.2,-825.47 -565.2,-1346.08l0 -45862.41c0,-520.61 185.93,-974.23 565.2,-1353.5 379.27,-379.27 832.89,-565.2 1353.5,-565.2l2483.84 0c609.79,0 1137.82,185.93 1561.76,565.2 423.87,379.27 847.73,899.82 1279.09,1561.69l23068.83 34714.76 0 -34922.95c0,-520.61 193.35,-974.23 572.62,-1353.5 371.79,-379.27 825.47,-565.2 1346.01,-565.2l2907.77 0c520.61,0 974.23,185.93 1353.5,565.2 379.27,379.27 565.2,832.89 565.2,1353.5l0 45862.41c0,520.61 -185.93,966.81 -565.2,1346.08 -379.27,379.27 -832.89,565.2 -1353.5,565.2l-2483.84 0c-617.28,0 -1137.82,-185.93 -1561.76,-565.2zm-70210.33 -40113.86c-2320.24,2231.06 -3554.81,5518.1 -3688.65,9868.56 -52.01,1420.42 -74.34,3413.47 -74.34,5964.3 0,2558.25 22.33,4543.87 74.34,5964.3 133.85,4357.88 1368.41,7644.93 3688.65,9868.56 2320.24,2223.57 5369.35,3339.06 9154.6,3339.06 3785.33,0 6841.85,-1115.49 9162.09,-3339.06 2320.31,-2223.63 3547.32,-5510.68 3688.65,-9868.56 96.67,-2840.85 141.27,-4826.48 141.27,-5964.3 0,-1137.82 -44.59,-3123.45 -141.27,-5964.3 -141.33,-4350.46 -1368.34,-7637.51 -3688.65,-9868.56 -2320.24,-2223.57 -5376.77,-3331.64 -9162.09,-3331.64 -3785.26,0 -6834.36,1108.07 -9154.6,3331.64zm19595.86 -7169.05c2930.03,1703.03 5168.51,4008.42 6707.94,6923.62 1539.36,2907.77 2349.99,6165.07 2446.67,9764.47 96.67,2833.43 141.33,4945.48 141.33,6313.82 0,1375.76 -44.66,3480.39 -141.33,6321.24 -141.27,3599.4 -981.65,6849.21 -2521.08,9756.98 -1531.94,2915.26 -3763,5220.59 -6670.77,6923.62 -2907.77,1703.03 -6380.68,2558.25 -10404.01,2558.25 -4023.27,0 -7488.75,-855.22 -10396.52,-2558.25 -2915.26,-1703.03 -5138.83,-4008.36 -6670.77,-6923.62 -1539.43,-2907.77 -2379.81,-6157.58 -2521.08,-9756.98 -52.08,-1420.42 -74.34,-3525.05 -74.34,-6321.24 0,-2788.77 22.26,-4893.4 74.34,-6313.82 89.25,-3599.4 907.3,-6856.69 2446.67,-9764.47 1539.43,-2915.19 3770.48,-5220.59 6707.94,-6923.62 2937.52,-1702.96 6410.5,-2558.18 10433.76,-2558.18 4023.33,0 7503.73,855.22 10441.25,2558.18zm-46576.37 47282.9c-379.27,-379.27 -565.2,-825.47 -565.2,-1346.08l0 -45862.41c0,-520.61 185.93,-974.23 565.2,-1353.5 379.27,-379.27 832.89,-565.2 1353.43,-565.2l2907.77 0c520.61,0 974.23,185.93 1353.5,565.2 371.85,379.27 565.2,832.89 565.2,1353.5l0 45862.41c0,520.61 -193.35,966.81 -565.2,1346.08 -379.27,379.27 -832.89,565.2 -1353.5,565.2l-2907.77 0c-520.54,0 -974.16,-185.93 -1353.43,-565.2zm-11571.59 -35889.76c-327.26,312.35 -706.54,461.04 -1130.4,461.04l-2915.19 0c-565.2,0 -989.14,-104.09 -1279.16,-319.77 -282.6,-208.19 -587.46,-624.64 -922.15,-1241.92 -758.55,-1465.02 -2067.39,-2907.77 -3934.01,-4328.2 -1874.11,-1420.42 -4343.11,-2126.89 -7421.9,-2126.89 -2840.85,0 -5242.92,639.55 -7206.22,1911.21 -1963.3,1279.16 -2944.94,3101.12 -2944.94,5466.02 0,1613.77 483.37,2922.68 1457.6,3941.5 966.81,1018.82 2431.82,1896.37 4402.54,2625.17 1955.88,736.22 4930.57,1621.19 8901.82,2669.76 5399.1,1420.42 9221.53,3153.2 11467.42,5213.17 2245.96,2059.97 3376.3,4863.65 3376.3,8410.96 0,2840.85 -795.72,5354.44 -2379.74,7525.99 -1584.02,2178.97 -3822.5,3882 -6707.94,5116.5 -2892.93,1227.08 -6224.57,1844.29 -10009.9,1844.29 -3502.66,0 -6700.52,-661.88 -9585.96,-1993.05 -2885.44,-1323.75 -5161.09,-3011.87 -6819.52,-5071.84 -1650.94,-2059.97 -2528.43,-4105.1 -2625.17,-6142.74 0,-423.93 156.18,-788.3 461.11,-1100.65 312.35,-304.93 676.72,-461.11 1100.65,-461.11l2915.19 0c520.61,0 944.48,104.09 1271.67,319.77 334.68,215.68 639.55,632.12 929.63,1241.99 751.06,1702.96 2141.73,3264.72 4149.69,4685.14 2007.89,1420.42 4744.64,2134.31 8202.71,2134.31 3450.64,0 6373.32,-751.13 8767.98,-2238.48 2387.16,-1494.77 3584.49,-3443.16 3584.49,-5860.14 0,-1561.69 -632.12,-2870.6 -1881.53,-3941.5 -1256.76,-1063.41 -2974.7,-1955.81 -5146.18,-2692.09 -2178.97,-736.22 -5376.77,-1643.52 -9585.96,-2736.69 -4595.96,-1182.48 -7905.27,-2892.93 -9942.97,-5146.25 -2030.22,-2245.9 -3049.04,-5027.24 -3049.04,-8344.04 0,-2454.09 639.55,-4729.73 1918.64,-6812.03 1271.74,-2082.3 3190.37,-3763 5748.62,-5042.15 2558.25,-1279.09 5629.62,-1918.64 9229.02,-1918.64 3599.4,0 6745.11,699.05 9444.69,2097.14 2692.09,1398.09 4774.39,3115.96 6246.83,5146.25 1465.08,2037.64 2245.9,3904.26 2342.57,5607.29 44.66,431.36 -96.67,795.72 -431.29,1100.65zm-43869.43 0c-334.61,312.35 -713.89,461.04 -1137.82,461.04l-2907.77 0c-572.62,0 -996.49,-104.09 -1279.09,-319.77 -282.6,-208.19 -594.95,-624.64 -922.15,-1241.92 -758.55,-1465.02 -2074.88,-2907.77 -3941.5,-4328.2 -1874.04,-1420.42 -4343.04,-2126.89 -7421.9,-2126.89 -2840.78,0 -5242.85,639.55 -7206.15,1911.21 -1963.36,1279.16 -2945.01,3101.12 -2945.01,5466.02 0,1613.77 483.44,2922.68 1457.6,3941.5 966.81,1018.82 2439.31,1896.37 4402.61,2625.17 1963.3,736.22 4930.57,1621.19 8909.18,2669.76 5391.68,1420.42 9214.17,3153.2 11467.49,5213.17 2245.9,2059.97 3368.88,4863.65 3368.88,8410.96 0,2840.85 -795.79,5354.44 -2379.81,7525.99 -1584.02,2178.97 -3822.43,3882 -6707.94,5116.5 -2885.44,1227.08 -6224.57,1844.29 -10009.83,1844.29 -3502.72,0 -6700.52,-661.88 -9585.96,-1993.05 -2885.51,-1323.75 -5153.67,-3011.87 -6812.1,-5071.84 -1658.37,-2059.97 -2535.92,-4105.1 -2625.17,-6142.74 0,-423.93 148.75,-788.3 461.11,-1100.65 304.86,-304.93 669.3,-461.11 1100.58,-461.11l2907.77 0c520.61,0 944.48,104.09 1279.16,319.77 327.19,215.68 639.55,632.12 922.15,1241.99 758.55,1702.96 2141.8,3264.72 4149.69,4685.14 2015.38,1420.42 4744.64,2134.31 8202.78,2134.31 3458.06,0 6380.68,-751.13 8767.91,-2238.48 2387.16,-1494.77 3584.49,-3443.16 3584.49,-5860.14 0,-1561.69 -624.64,-2870.6 -1881.46,-3941.5 -1256.83,-1063.41 -2967.27,-1955.81 -5146.25,-2692.09 -2178.97,-736.22 -5369.35,-1643.52 -9585.96,-2736.69 -4588.47,-1182.48 -7905.27,-2892.93 -9935.48,-5146.25 -2037.71,-2245.9 -3056.53,-5027.24 -3056.53,-8344.04 0,-2454.09 639.55,-4729.73 1918.7,-6812.03 1279.09,-2082.3 3197.79,-3763 5748.62,-5042.15 2558.18,-1279.09 5629.62,-1918.64 9228.95,-1918.64 3599.4,0 6745.18,699.05 9444.69,2097.14 2699.52,1398.09 4781.82,3115.96 6246.9,5146.25 1465.02,2037.64 2245.9,3904.26 2342.57,5607.29 44.59,431.36 -96.67,795.72 -423.93,1100.65zm-68157.78 30066.79l23857.06 0c520.61,0 966.81,193.35 1346.08,565.2 379.27,379.27 572.62,832.89 572.62,1353.43l0 2558.25c0,520.61 -193.35,966.81 -572.62,1346.08 -379.27,379.27 -825.47,565.2 -1346.08,565.2l-28683.54 0c-520.54,0 -966.74,-185.93 -1346.01,-565.2 -379.27,-379.27 -572.62,-825.47 -572.62,-1346.08l0 -45862.41c0,-520.61 193.35,-974.23 572.62,-1353.5 379.27,-379.27 825.47,-565.2 1346.01,-565.2l28110.92 0c520.61,0 974.23,185.93 1353.5,565.2 379.27,379.27 565.2,832.89 565.2,1353.5l0 2550.83c0,520.54 -185.93,974.16 -565.2,1353.43 -379.27,379.27 -832.89,565.2 -1353.5,565.2l-23284.44 0 0 14977.64 21730.17 0c513.12,0 966.81,193.35 1346.08,572.62 379.27,379.27 565.2,825.47 565.2,1346.08l0 2558.18c0,520.61 -185.93,966.81 -565.2,1346.08 -379.27,379.27 -832.96,572.62 -1346.08,572.62l-21730.17 0 0 15542.84zm-16256.73 -42739.03c379.27,379.27 572.62,832.89 572.62,1353.5l0 2550.83c0,527.96 -193.35,974.16 -572.62,1353.43 -379.27,379.27 -825.47,565.2 -1346.08,565.2l-23358.85 0 0 16398.06 21938.43 0c520.61,0 966.81,193.35 1346.08,572.62 379.27,379.27 572.62,825.47 572.62,1346.01l0 2558.25c0,520.61 -193.35,966.81 -572.62,1346.08 -379.27,379.27 -825.47,572.62 -1346.08,572.62l-21938.43 0 0 18599.3c0,520.61 -185.86,966.81 -565.13,1346.08 -379.27,379.27 -832.96,565.2 -1353.5,565.2l-2907.77 0c-520.61,0 -974.23,-185.93 -1346.08,-565.2 -379.27,-379.27 -572.62,-825.47 -572.62,-1346.08l0 -45862.41c0,-520.61 193.35,-974.23 572.62,-1353.5 371.85,-371.85 825.47,-565.2 1346.08,-565.2l28185.26 0c520.61,0 966.81,193.35 1346.08,565.2zm-70567.34 8448.14c-2320.24,2231.06 -3547.32,5518.1 -3688.65,9868.56 -52.01,1420.42 -74.34,3413.47 -74.34,5964.3 0,2558.25 22.33,4543.87 74.34,5964.3 141.33,4357.88 1368.41,7644.93 3688.65,9868.56 2320.24,2223.57 5369.35,3339.06 9162.09,3339.06 3785.33,0 6834.36,-1115.49 9154.6,-3339.06 2320.31,-2223.63 3554.81,-5510.68 3696.07,-9868.56 89.25,-2840.85 141.33,-4826.48 141.33,-5964.3 0,-1137.82 -52.08,-3123.45 -141.33,-5964.3 -141.27,-4350.46 -1375.76,-7637.51 -3696.07,-9868.56 -2320.24,-2223.57 -5369.28,-3331.64 -9154.6,-3331.64 -3792.75,0 -6841.85,1108.07 -9162.09,3331.64zm19595.86 -7169.05c2937.52,1703.03 5168.51,4008.42 6707.94,6923.62 1539.43,2907.77 2357.41,6165.07 2454.15,9764.47 89.19,2833.43 141.27,4945.48 141.27,6313.82 0,1375.76 -52.08,3480.39 -141.27,6321.24 -148.75,3599.4 -989.14,6849.21 -2521.08,9756.98 -1539.43,2915.26 -3763,5220.59 -6678.19,6923.62 -2907.77,1703.03 -6373.32,2558.25 -10396.59,2558.25 -4023.27,0 -7488.82,-855.22 -10404.01,-2558.25 -2907.77,-1703.03 -5131.34,-4008.36 -6670.77,-6923.62 -1539.43,-2907.77 -2379.74,-6157.58 -2521.08,-9756.98 -52.08,-1420.42 -74.34,-3525.05 -74.34,-6321.24 0,-2788.77 22.26,-4893.4 74.34,-6313.82 96.67,-3599.4 907.3,-6856.69 2446.67,-9764.47 1539.43,-2915.19 3777.9,-5220.59 6708.01,-6923.62 2937.52,-1702.96 6417.92,-2558.18 10441.18,-2558.18 4023.27,0 7496.24,855.22 10433.76,2558.18zm-55656.63 21440.22c7146.72,0 10716.36,-2863.18 10716.36,-8589.47 0,-2930.1 -899.88,-5049.57 -2692.16,-6350.99 -1799.7,-1301.42 -4476.88,-1955.88 -8024.2,-1955.88l-12002.94 0 0 16896.34 12002.94 0zm12635 -19625.61c3220.12,2431.82 4826.48,6112.99 4826.48,11036.14 0,3688.65 -922.15,6700.52 -2766.51,9013.34 -1844.29,2320.24 -4328.2,3978.67 -7451.58,4975.16l10716.36 18666.29c141.27,282.6 215.61,542.87 215.61,780.81 0,431.36 -156.18,795.72 -461.04,1100.65 -312.35,312.35 -676.78,461.11 -1100.65,461.11l-3056.53 0c-1323.68,0 -2342.57,-639.61 -3049.04,-1911.28l-10299.92 -18108.44 -12211.13 0 0 18108.44c0,520.61 -185.93,966.81 -565.2,1346.08 -379.27,379.27 -825.47,565.2 -1346.01,565.2l-2915.26 0c-520.54,0 -966.74,-185.93 -1346.01,-565.2 -379.27,-379.27 -565.2,-825.47 -565.2,-1346.08l0 -45862.41c0,-520.61 185.93,-974.23 565.2,-1353.5 379.27,-379.27 825.47,-565.2 1346.01,-565.2l17186.36 0c4967.74,0 9057.93,1219.66 12278.05,3658.9zm-57359.65 20339.5c3450.64,0 6105.57,-751.13 7949.93,-2238.48 1844.29,-1494.77 2766.44,-3725.82 2766.44,-6707.94 0,-5778.37 -3569.65,-8663.81 -10716.36,-8663.81l-12709.41 0 0 17610.23 12709.41 0zm12597.89 -20168.48c3242.39,2558.25 4863.58,6298.91 4863.58,11222.06 0,3309.38 -765.97,6127.9 -2305.33,8448.14 -1539.43,2320.31 -3599.4,4045.6 -6179.98,5183.42 -2580.58,1137.82 -5451.11,1703.03 -8626.64,1703.03l-13058.93 0 0 17394.55c0,520.61 -193.35,966.81 -572.62,1346.08 -371.85,379.27 -825.47,565.2 -1346.01,565.2l-2907.77 0c-520.61,0 -974.23,-185.93 -1353.5,-565.2 -379.27,-379.27 -565.2,-825.47 -565.2,-1346.08l0 -45862.41c0,-520.61 185.93,-974.23 565.2,-1353.5 379.27,-379.27 832.89,-565.2 1353.5,-565.2l17885.34 0c4923.15,0 9005.92,1279.16 12248.37,3829.92zm844346.29 -126915.53c0,0 -10433.76,-2617.75 -20763.43,-6001.47 -10582.45,-3472.97 -21008.79,-9303.36 -19833.8,-18703.46 2327.73,-18584.39 36001.34,-17424.3 70842.46,-5808.06l5800.7 -19744.61c0,0 -82205.85,-30460.91 -95220.13,15096.64 -8589.47,30066.79 13705.9,43363.67 32074.68,49142.04 557.78,171.02 20815.44,5889.89 23053.92,6447.67 10433.76,3837.34 20555.17,9734.72 19618.12,18048.94 -2111.98,18606.79 -36001.27,17416.88 -70842.46,5808.12l-5800.64 19737.12c0,0 83365.94,30468.4 96380.28,-15096.57 8916.66,-31204.61 -16345.98,-43557.08 -35309.71,-48926.36zm-228717.24 -40961.66l0 -17424.3 -81291.13 0 -17416.88 0 -3480.39 0 0 130061.31 3480.39 0 17416.88 0 81291.13 0 0 -17416.81 -81291.13 0 0 -40641.89 67354.64 0 0 -17424.3 -67354.64 0 0 -37154 81291.13 0zm-174191.02 95220.2l-42962.13 0 0 -40641.89 35993.92 0c0,0 25552.67,0 25552.67,20897.28 0,19744.61 -18584.46,19744.61 -18584.46,19744.61zm-3480.39 -95220.2c0,0 12776.33,0 12776.33,18577.04 0,18576.97 -12776.33,18576.97 -12776.33,18576.97l-39481.73 0 0 -37154 39481.73 0zm24295.84 45512.96c6358.42,-5347.08 11705.5,-13750.56 11705.5,-26935.92 0,-36001.34 -32520.94,-36001.34 -32520.94,-36001.34l-42962.13 0 -17424.3 0 -3480.39 0 0 130061.31 3480.39 0 17424.3 0 42962.13 0c0,0 41809.4,1160.15 41809.4,-37161.43 0,-17550.73 -10723.78,-25939.36 -20993.95,-29962.63zm203305.91 -45512.96l46449.94 0c0,0 17424.3,0 17424.3,23225.01 0,24385.09 -19744.61,25545.25 -19744.61,25545.25l-44129.64 0 0 -48770.25zm86749.66 94060.04c-8700.99,0 -17037.61,-3465.55 -23180.35,-9623.13l-18190.27 -18257.26c1747.62,-119 39392.48,-3234.97 39392.48,-41794.55 0,-35339.4 -29747.02,-40909.51 -35993.92,-41682.97l0 -126.42 -48777.61 0 -11608.76 0 -9288.52 0 0 130061.31 20897.28 0 0 -46449.94 19476.85 0 35235.3 37183.76c6105.57,6417.92 15706.44,10091.66 24563.6,10173.49l26400.47 252.85 0 -19737.12 -18926.56 0zm-498991.03 -94060.04l46449.94 0c0,0 17416.88,0 17416.88,23225.01 0,24385.09 -19737.19,25545.25 -19737.19,25545.25l-44129.64 0 0 -48770.25zm86749.66 94060.04c-8700.99,0 -17045.03,-3465.55 -23187.77,-9623.13l-18190.27 -18257.26c1755.04,-119 39399.9,-3234.97 39399.9,-41794.55 0,-35339.4 -29754.44,-40909.51 -36001.34,-41682.97l0 -126.42 -48770.18 0 -11616.25 0 -9288.45 0 0 130061.31 20904.7 0 0 -46449.94 19476.85 0 35227.88 37183.76c6105.57,6417.92 15713.86,10091.66 24571.02,10173.49l26400.47 252.85 0 -19737.12 -18926.56 0zm-314358.83 1160.15l-42962.13 0 0 -40641.89 35993.85 0c0,0 25552.67,0 25552.67,20897.28 0,19744.61 -18584.39,19744.61 -18584.39,19744.61zm-3480.39 -95220.2c0,0 12776.33,0 12776.33,18577.04 0,18576.97 -12776.33,18576.97 -12776.33,18576.97l-39481.73 0 0 -37154 39481.73 0zm24295.84 45512.96c6358.42,-5347.08 11705.43,-13750.56 11705.43,-26935.92 0,-36001.34 -32520.88,-36001.34 -32520.88,-36001.34l-42962.13 0 -17416.88 0 -3487.82 0 0 130061.31 3487.82 0 17416.88 0 42962.13 0c0,0 41809.4,1160.15 41809.4,-37161.43 0,-17550.73 -10723.78,-25939.36 -20993.95,-29962.63zm74382.35 21834.26l24994.95 -65108.74 24994.89 65108.74 -49989.84 0zm67376.97 45289.79l20904.7 0 -49930.34 -130061.31 -5808.12 0 -15096.57 0 -5808.12 0 -49930.34 130061.31 20897.28 0 10701.52 -27865.49 63375.97 0 10694.03 27865.49zm-370439.4 -75483.01l16702.93 0c5904.8,0 10411.43,5228.08 9578.54,11065.89 -1524.52,10589.94 -7697.01,23775.3 -28601.71,34223.9 0,0 13832.33,-13125.86 18576.97,-29033.06 1413,-4714.89 520.61,-9347.95 -4030.69,-11222.06l-12226.04 -5034.66zm-127733.65 0l16702.99 0c5897.31,0 10411.43,5228.08 9571.05,11065.89 -1517.1,10589.94 -7697.01,23775.3 -28601.71,34223.9 0,0 13839.81,-13125.86 18584.46,-29033.06 1405.52,-4714.89 513.12,-9347.95 -4038.18,-11222.06l-12218.62 -5034.66zm166702.2 -6098.15l-3993.51 -5153.67 -431.36 -498.21c-2907.77,-2907.77 -6767.44,-4506.7 -10872.47,-4506.7l-88430.42 0c-3666.32,0 -7221.06,1316.33 -10002.41,3703.49l-4581.05 4975.23c-178.51,193.35 -319.77,408.96 -461.11,617.22l-9176.93 0 -3777.84 -4878.49 -438.78 -490.86c-2900.35,-2907.77 -6767.44,-4506.64 -10872.54,-4506.64l-88423 0c-3666.25,0 -7221.06,1316.26 -10009.83,3703.49l-4581.05 4975.16c-1940.97,2134.38 -1784.79,5436.27 349.52,7377.24 2134.38,1948.45 5443.69,1792.28 7384.72,-342.04l3859.67 -4246.43c855.22,-654.39 1911.21,-1011.4 2996.96,-1011.4l88423 0c1227.08,0 2379.74,438.78 3287.05,1249.41l3755.57 4848.74c542.87,699.05 1234.5,1212.24 1985.56,1554.27 803.21,661.88 1822.03,1070.9 2937.52,1070.9l15118.9 0c1390.67,0 2617.75,-617.22 3472.97,-1576.6 699.05,-290.02 1353.5,-713.89 1896.37,-1308.84l3859.67 -4238.94c862.71,-661.88 1911.28,-1018.82 2997.03,-1018.82l88430.42 0c1219.59,0 2379.74,438.78 3279.56,1249.34l3755.57 4848.81c1033.73,1331.17 2580.58,2030.22 4134.85,2030.22 1122.91,0 2245.9,-356.94 3197.79,-1100.65 2283.07,-1762.53 2699.52,-5049.57 929.57,-7325.22zm-228248.71 -17126.79l-22064.85 0c-1926.12,0 -3487.82,-1554.27 -3487.82,-3480.39 0,-1926.12 1561.69,-3487.88 3487.82,-3487.88l22064.85 0c1926.12,0 3480.39,1561.76 3480.39,3487.88 0,1926.12 -1554.27,3480.39 -3480.39,3480.39zm1398.09 -8976.17c-282.6,0 -565.2,-29.75 -847.8,-96.67l-24615.61 -6120.48c-1866.62,-468.53 -3004.45,-2357.41 -2543.34,-4224.03 468.46,-1866.62 2357.41,-3004.45 4224.03,-2543.41l24615.68 6120.48c1866.62,468.53 3004.45,2357.41 2543.34,4224.03 -394.12,1584.02 -1814.54,2640.08 -3376.3,2640.08zm5912.22 -7964.77c-513.12,0 -1033.66,-111.58 -1524.52,-356.94l-29382.59 -14412.44c-1732.78,-847.8 -2446.73,-2930.1 -1598.93,-4655.39 847.8,-1732.78 2937.52,-2446.73 4662.88,-1598.93l29382.59 14412.44c1725.29,847.8 2439.24,2937.52 1591.44,4662.81 -602.37,1234.5 -1836.87,1948.45 -3130.87,1948.45zm6618.75 -7444.16c-654.45,0 -1316.33,-185.93 -1903.86,-565.2l-33673.61 -22064.85c-1613.77,-1056.06 -2059.97,-3220.12 -1011.4,-4826.48 1056.06,-1606.35 3220.12,-2059.97 4826.48,-1003.98l33673.61 22064.85c1613.77,1056.06 2059.97,3212.7 1003.98,4826.48 -661.88,1018.82 -1777.37,1569.18 -2915.19,1569.18zm9295.94 -6968.28c-780.88,0 -1561.76,-252.85 -2208.72,-788.3l-38321.58 -31353.3c-1487.35,-1219.66 -1710.45,-3413.47 -490.86,-4900.82 1219.66,-1487.35 3413.47,-1710.45 4908.24,-490.86l38314.16 31353.37c1494.77,1219.59 1710.45,3413.47 490.86,4908.24 -684.21,840.38 -1688.18,1271.67 -2692.09,1271.67zm10448.6 -6968.21c-870.13,0 -1747.62,-327.26 -2424.4,-981.65l-43081.06 -41705.3c-1383.25,-1338.66 -1420.42,-3547.32 -81.83,-4923.15 1338.66,-1383.25 3539.9,-1420.42 4923.15,-81.76l43088.55 41705.23c1383.19,1338.66 1420.42,3547.38 81.76,4930.57 -684.14,706.54 -1591.44,1056.06 -2506.17,1056.06zm192567.22 68722.98c-2885.44,0 -5220.59,2342.57 -5220.59,5228.01 0,28750.53 -23396.02,49811.4 -52139.06,49811.4 -28750.46,0 -52139.06,-17580.48 -52139.06,-46330.94 0,-2290.56 -1487.35,-4216.68 -3539.9,-4923.15 -624.7,-312.35 -1316.33,-498.28 -2067.39,-498.28l-11638.51 0c-736.29,0 -1427.91,185.93 -2045.13,490.86 -2067.39,699.05 -3569.65,2632.59 -3569.65,4930.57 0,28750.46 -23388.6,46330.94 -52131.64,46330.94 -28750.46,0 -52139.06,-21060.87 -52139.06,-49811.4 0,-2885.44 -2342.57,-5228.01 -5228.01,-5228.01 -2885.44,0 -5228.01,2342.57 -5228.01,5228.01 0,34513.99 28081.16,60267.43 62595.09,60267.43 33205.08,0 60445.93,-20198.16 62453.82,-52912.45l2216.21 0c2007.89,32714.29 29248.74,52912.45 62461.24,52912.45 34506.5,0 62587.67,-25753.44 62587.67,-60267.43 0,-2885.44 -2342.57,-5228.01 -5228.01,-5228.01zm-249331.92 64179.18c-1070.9,0 -2156.64,-327.26 -3086.28,-1011.4 -10493.26,-7674.75 -17372.22,-18986.06 -19357.85,-31836.74 -1993.05,-12850.68 1145.24,-25708.84 8827.41,-36202.11 1703.03,-2327.73 4967.74,-2833.43 7302.89,-1130.4 2327.73,1703.03 2833.43,4975.23 1130.4,7302.89 -12456.56,17015.28 -8745.65,40983.92 8269.63,53433.06 2327.73,1710.45 2833.43,4975.16 1130.4,7302.89 -1026.24,1398.09 -2610.26,2141.8 -4216.61,2141.8zm261632.3 -2744.18c-1383.25,0 -2759.02,-542.87 -3785.33,-1621.19 -1993.05,-2089.72 -1911.21,-5399.1 178.51,-7384.72 15252.75,-14553.7 15825.37,-38804.95 1279.09,-54057.7 -1993.05,-2089.72 -1911.21,-5399.1 171.09,-7392.14 2089.72,-1993.05 5399.03,-1911.28 7392.08,178.51 18524.95,19424.77 17796.16,50302.12 -1628.61,68827.08 -1011.4,966.81 -2312.82,1450.18 -3606.82,1450.18zm-196107.11 -172287.22c-2030.22,9273.68 -5198.26,36053.42 20019.72,53901.59 974.23,691.63 2312.82,-96.67 2216.15,-1286.58 -386.7,-5116.43 -475.95,-15966.71 4112.52,-26415.31 780.88,-1777.37 3316.8,-1762.53 4157.18,-7.42 4937.99,10344.51 22600.23,32848.14 79357.52,14776.8 1070.9,-342.1 1383.25,-1755.04 520.61,-2476.42 -4291.02,-3606.82 -13482.87,-12999.43 -11207.22,-25835.27 238.01,-1316.33 1978.21,-1688.18 2751.6,-602.37 2766.51,3911.68 8886.98,10857.63 19863.61,15654.35 10299.85,4499.21 28445.53,2684.67 40314.63,9303.36 16509.58,9206.69 15669.2,25842.69 41459.87,27731.64 1227.08,89.25 1755.04,-1524.52 728.8,-2201.3 -4588.47,-3063.95 -11184.89,-9214.11 -11184.89,-19328.1 0,-14932.98 0,-50012.1 -36031.02,-55336.86 -1554.34,-230.52 -1918.7,-2305.4 -528.03,-3041.62 5086.75,-2662.34 15342,-5570.12 30765.84,1294 929.57,409.03 1859.2,-587.53 1390.67,-1487.35 -3190.37,-6127.9 -12642.49,-21150.13 -32803.55,-31353.37 -28192.68,-14263.68 -74590.54,-19885.88 -102820.46,6700.52 -1041.15,974.23 -2751.6,119 -2476.48,-1279.09 877.55,-4447.2 4476.95,-12322.72 17788.74,-21536.82 1264.25,-877.55 765.97,-2863.18 -765.97,-2982.18 -13787.73,-1033.66 -56013.64,-840.31 -86712.49,35562.56 -736.29,870.06 -2141.8,446.2 -2216.21,-691.63 -208.19,-3182.95 275.18,-8790.24 4447.2,-15624.6 721.38,-1175 -416.45,-2602.84 -1703.03,-2097.14 -4811.57,1896.37 -12917.6,6752.53 -17610.23,18695.97 -3019.29,7697.01 -1650.94,16435.23 3309.38,23046.5l10247.84 13668.73c855.22,1137.82 2543.34,1122.98 3398.63,-7.42 2729.27,-3599.4 8656.33,-10091.66 16145.14,-10441.18 1978.21,-89.25 3487.82,1762.46 3063.95,3696zm214817.99 281971.87l-3101.12 0c-15505.67,-3101.12 -15505.67,-15505.67 -15505.67,-15505.67 26749.99,-2431.76 30617.08,-16308.74 31033.6,-22176.37 96.67,-1338.59 -959.39,-2498.75 -2290.56,-2416.91 -18837.31,1145.24 -22540.8,-14828.88 -22540.8,-28118.4 0,-34104.9 -12404.48,-34104.9 -12404.48,-34104.9 -3101.12,18599.3 -18606.72,18599.3 -18606.72,18599.3 12404.48,52719.11 -31003.85,55820.23 -49610.57,49617.99 -18606.79,-6202.24 -24809.03,12404.48 -24809.03,12404.48 -18599.3,-18606.72 -34104.9,3093.7 -34104.9,3093.7 0,0 -15505.67,-21700.42 -34104.97,-3093.7 0,0 -6202.24,-18606.72 -24809.03,-12404.48 -18606.72,6202.24 -62015.05,3101.12 -49610.57,-49617.99 0,0 -6202.24,0 -9303.36,-18599.3 0,0 -12404.48,0 -12404.48,34104.9 0,13200.27 4848.74,29047.97 -12902.76,28140.67 -1502.26,-74.34 -2736.75,1175.06 -2610.33,2669.83 505.7,5763.46 4328.2,18391.04 27813.47,21544.24 1874.04,252.85 3108.54,2164.13 2543.34,3963.76 -1078.32,3450.71 -3941.43,8492.8 -11512.08,11021.29 -1390.67,468.53 -1792.21,2223.57 -691.63,3182.95l2759.08 2416.91c11519.51,10084.24 15066.82,26526.89 8730.74,40463.38l-4826.48 10627.11c0,0 5822.97,8812.57 21707.91,-3101.12 12054.96,-9043.09 661.88,49335.39 51328.43,63978.34 2104.56,609.79 4179.44,-1041.15 4067.93,-3227.54 -297.51,-5733.71 0,-16226.98 4699.98,-26162.46 691.63,-1450.18 2766.51,-1457.6 3450.64,-7.49 6261.74,13378.71 32602.71,58995.76 95361.46,44337.96 2335.15,-550.36 3242.45,-3398.63 1606.35,-5153.67 -5436.27,-5815.54 -14776.8,-17781.31 -15081.73,-31583.89 -37.17,-1836.87 2141.8,-2840.85 3443.22,-1546.85 9214.11,9102.59 37934.88,31345.88 76777,2625.17 1636.1,-1212.17 1375.76,-3733.24 -498.28,-4536.45 -5763.46,-2469 -15453.59,-7935.02 -17149.12,-17245.8 -260.27,-1420.42 944.48,-2699.52 2387.16,-2573.09 8812.57,773.39 37273.01,1524.52 48770.25,-19380.18 713.89,-1301.42 156.18,-2944.94 -1241.99,-3443.22 -9191.78,-3301.96 -38574.43,-16978.11 -6759.95,-48792.51z"></path> </g> </svg>